<mxfile host="app.diagrams.net" modified="2022-05-18T08:56:43.440Z" agent="5.0 (Windows NT 10.0; Win64; x64) AppleWebKit/537.36 (KHTML, like Gecko) Chrome/101.0.4951.64 Safari/537.36 Edg/101.0.1210.47" etag="QverhTeJGm4aM1aAIGWS" version="18.0.7" type="github">
  <diagram id="Gd1jD1T3z64CeyciUK7a" name="Page-1">
    <mxGraphModel dx="1209" dy="773" grid="1" gridSize="10" guides="1" tooltips="1" connect="1" arrows="1" fold="1" page="1" pageScale="1" pageWidth="827" pageHeight="1169" math="0" shadow="0">
      <root>
        <mxCell id="0" />
        <mxCell id="1" parent="0" />
        <mxCell id="I5a_OeWgeSYJpLGYd27A-23" value="" style="edgeStyle=orthogonalEdgeStyle;rounded=0;orthogonalLoop=1;jettySize=auto;html=1;fontSize=12;" edge="1" parent="1" source="I5a_OeWgeSYJpLGYd27A-2" target="I5a_OeWgeSYJpLGYd27A-21">
          <mxGeometry relative="1" as="geometry" />
        </mxCell>
        <mxCell id="I5a_OeWgeSYJpLGYd27A-2" value="관리자" style="rounded=0;whiteSpace=wrap;html=1;" vertex="1" parent="1">
          <mxGeometry x="20" y="310" width="120" height="60" as="geometry" />
        </mxCell>
        <mxCell id="I5a_OeWgeSYJpLGYd27A-3" value="" style="endArrow=none;html=1;rounded=0;" edge="1" parent="1">
          <mxGeometry width="50" height="50" relative="1" as="geometry">
            <mxPoint x="130" y="110" as="sourcePoint" />
            <mxPoint x="250" y="110" as="targetPoint" />
          </mxGeometry>
        </mxCell>
        <mxCell id="I5a_OeWgeSYJpLGYd27A-4" value="" style="endArrow=none;html=1;rounded=0;" edge="1" parent="1">
          <mxGeometry width="50" height="50" relative="1" as="geometry">
            <mxPoint x="130" y="160" as="sourcePoint" />
            <mxPoint x="250" y="160" as="targetPoint" />
          </mxGeometry>
        </mxCell>
        <mxCell id="I5a_OeWgeSYJpLGYd27A-5" value="회원 등록" style="text;html=1;strokeColor=none;fillColor=none;align=center;verticalAlign=middle;whiteSpace=wrap;rounded=0;" vertex="1" parent="1">
          <mxGeometry x="160" y="120" width="60" height="30" as="geometry" />
        </mxCell>
        <mxCell id="I5a_OeWgeSYJpLGYd27A-7" value="회원가입" style="ellipse;whiteSpace=wrap;html=1;" vertex="1" parent="1">
          <mxGeometry x="320" y="100" width="100" height="70" as="geometry" />
        </mxCell>
        <mxCell id="I5a_OeWgeSYJpLGYd27A-8" value="사용자" style="rounded=0;whiteSpace=wrap;html=1;" vertex="1" parent="1">
          <mxGeometry x="500" y="105" width="120" height="60" as="geometry" />
        </mxCell>
        <mxCell id="I5a_OeWgeSYJpLGYd27A-9" value="" style="endArrow=classic;html=1;rounded=0;" edge="1" parent="1">
          <mxGeometry width="50" height="50" relative="1" as="geometry">
            <mxPoint x="300" y="134.5" as="sourcePoint" />
            <mxPoint x="250" y="134.5" as="targetPoint" />
          </mxGeometry>
        </mxCell>
        <mxCell id="I5a_OeWgeSYJpLGYd27A-10" value="" style="endArrow=classic;html=1;rounded=0;" edge="1" parent="1">
          <mxGeometry width="50" height="50" relative="1" as="geometry">
            <mxPoint x="480" y="134.5" as="sourcePoint" />
            <mxPoint x="430" y="134.5" as="targetPoint" />
          </mxGeometry>
        </mxCell>
        <mxCell id="I5a_OeWgeSYJpLGYd27A-15" value="회원가입&lt;br&gt;양식 작성" style="text;html=1;strokeColor=none;fillColor=none;align=center;verticalAlign=middle;whiteSpace=wrap;rounded=0;" vertex="1" parent="1">
          <mxGeometry x="430" y="90" width="60" height="30" as="geometry" />
        </mxCell>
        <mxCell id="I5a_OeWgeSYJpLGYd27A-17" value="&lt;font style=&quot;font-size: 20px;&quot;&gt;1. 회원가입&lt;/font&gt;" style="text;html=1;strokeColor=none;fillColor=none;align=center;verticalAlign=middle;whiteSpace=wrap;rounded=0;" vertex="1" parent="1">
          <mxGeometry x="50" y="40" width="110" height="30" as="geometry" />
        </mxCell>
        <mxCell id="I5a_OeWgeSYJpLGYd27A-18" value="" style="endArrow=none;html=1;rounded=0;" edge="1" parent="1">
          <mxGeometry width="50" height="50" relative="1" as="geometry">
            <mxPoint x="305" y="240" as="sourcePoint" />
            <mxPoint x="425" y="240" as="targetPoint" />
          </mxGeometry>
        </mxCell>
        <mxCell id="I5a_OeWgeSYJpLGYd27A-19" value="" style="endArrow=none;html=1;rounded=0;" edge="1" parent="1">
          <mxGeometry width="50" height="50" relative="1" as="geometry">
            <mxPoint x="305" y="290" as="sourcePoint" />
            <mxPoint x="425" y="290" as="targetPoint" />
          </mxGeometry>
        </mxCell>
        <mxCell id="I5a_OeWgeSYJpLGYd27A-20" value="장바구니 DB" style="text;html=1;strokeColor=none;fillColor=none;align=center;verticalAlign=middle;whiteSpace=wrap;rounded=0;" vertex="1" parent="1">
          <mxGeometry x="335" y="250" width="60" height="30" as="geometry" />
        </mxCell>
        <mxCell id="I5a_OeWgeSYJpLGYd27A-27" style="edgeStyle=orthogonalEdgeStyle;rounded=0;orthogonalLoop=1;jettySize=auto;html=1;exitX=1;exitY=0.5;exitDx=0;exitDy=0;fontSize=12;" edge="1" parent="1" source="I5a_OeWgeSYJpLGYd27A-21">
          <mxGeometry relative="1" as="geometry">
            <mxPoint x="355" y="290" as="targetPoint" />
          </mxGeometry>
        </mxCell>
        <mxCell id="I5a_OeWgeSYJpLGYd27A-21" value="&lt;font style=&quot;font-size: 12px;&quot;&gt;장바구니&lt;br&gt;담기&lt;/font&gt;" style="ellipse;whiteSpace=wrap;html=1;aspect=fixed;fontSize=20;" vertex="1" parent="1">
          <mxGeometry x="215" y="300" width="80" height="80" as="geometry" />
        </mxCell>
        <mxCell id="I5a_OeWgeSYJpLGYd27A-22" value="&lt;font style=&quot;font-size: 12px;&quot;&gt;장바구니&lt;br&gt;조회&lt;br&gt;&lt;/font&gt;" style="ellipse;whiteSpace=wrap;html=1;aspect=fixed;fontSize=20;" vertex="1" parent="1">
          <mxGeometry x="425" y="300" width="80" height="80" as="geometry" />
        </mxCell>
        <mxCell id="I5a_OeWgeSYJpLGYd27A-30" style="edgeStyle=orthogonalEdgeStyle;rounded=0;orthogonalLoop=1;jettySize=auto;html=1;fontSize=12;entryX=0;entryY=0.5;entryDx=0;entryDy=0;" edge="1" parent="1" target="I5a_OeWgeSYJpLGYd27A-22">
          <mxGeometry relative="1" as="geometry">
            <mxPoint x="415" y="380" as="targetPoint" />
            <mxPoint x="375" y="290" as="sourcePoint" />
            <Array as="points">
              <mxPoint x="375" y="340" />
            </Array>
          </mxGeometry>
        </mxCell>
        <mxCell id="I5a_OeWgeSYJpLGYd27A-32" value="제품선택" style="text;html=1;strokeColor=none;fillColor=none;align=center;verticalAlign=middle;whiteSpace=wrap;rounded=0;fontSize=12;" vertex="1" parent="1">
          <mxGeometry x="145" y="300" width="60" height="30" as="geometry" />
        </mxCell>
        <mxCell id="I5a_OeWgeSYJpLGYd27A-34" value="" style="endArrow=classic;html=1;rounded=0;fontSize=12;" edge="1" parent="1">
          <mxGeometry width="50" height="50" relative="1" as="geometry">
            <mxPoint x="505" y="340" as="sourcePoint" />
            <mxPoint x="540" y="320" as="targetPoint" />
          </mxGeometry>
        </mxCell>
        <mxCell id="I5a_OeWgeSYJpLGYd27A-37" value="&lt;font style=&quot;font-size: 20px;&quot;&gt;2. 장바구니&lt;/font&gt;" style="text;html=1;strokeColor=none;fillColor=none;align=center;verticalAlign=middle;whiteSpace=wrap;rounded=0;" vertex="1" parent="1">
          <mxGeometry x="50" y="230" width="110" height="30" as="geometry" />
        </mxCell>
        <mxCell id="I5a_OeWgeSYJpLGYd27A-38" value="" style="endArrow=classic;html=1;rounded=0;fontSize=12;" edge="1" parent="1">
          <mxGeometry width="50" height="50" relative="1" as="geometry">
            <mxPoint x="505" y="340" as="sourcePoint" />
            <mxPoint x="540" y="360" as="targetPoint" />
          </mxGeometry>
        </mxCell>
        <mxCell id="I5a_OeWgeSYJpLGYd27A-39" value="모니터 출력" style="text;html=1;strokeColor=none;fillColor=none;align=center;verticalAlign=middle;whiteSpace=wrap;rounded=0;fontSize=12;" vertex="1" parent="1">
          <mxGeometry x="550" y="300" width="70" height="30" as="geometry" />
        </mxCell>
        <mxCell id="I5a_OeWgeSYJpLGYd27A-41" value="장바구니&lt;br&gt;검색" style="text;html=1;strokeColor=none;fillColor=none;align=center;verticalAlign=middle;whiteSpace=wrap;rounded=0;fontSize=12;" vertex="1" parent="1">
          <mxGeometry x="550" y="350" width="70" height="30" as="geometry" />
        </mxCell>
        <mxCell id="I5a_OeWgeSYJpLGYd27A-48" value="사용자" style="whiteSpace=wrap;html=1;fontSize=12;" vertex="1" parent="1">
          <mxGeometry x="680" y="310" width="120" height="60" as="geometry" />
        </mxCell>
        <mxCell id="I5a_OeWgeSYJpLGYd27A-54" value="" style="shape=partialRectangle;whiteSpace=wrap;html=1;bottom=1;right=1;left=1;top=0;fillColor=none;routingCenterX=-0.5;fontSize=12;rotation=-90;" vertex="1" parent="1">
          <mxGeometry x="610" y="330" width="50" height="20" as="geometry" />
        </mxCell>
        <mxCell id="I5a_OeWgeSYJpLGYd27A-58" value="" style="endArrow=classic;html=1;rounded=0;fontSize=12;entryX=0;entryY=0.5;entryDx=0;entryDy=0;exitX=0.5;exitY=1;exitDx=0;exitDy=0;" edge="1" parent="1" source="I5a_OeWgeSYJpLGYd27A-54" target="I5a_OeWgeSYJpLGYd27A-48">
          <mxGeometry width="50" height="50" relative="1" as="geometry">
            <mxPoint x="650" y="340" as="sourcePoint" />
            <mxPoint x="700" y="290" as="targetPoint" />
          </mxGeometry>
        </mxCell>
      </root>
    </mxGraphModel>
  </diagram>
</mxfile>
